<svg xmlns="http://www.w3.org/2000/svg" version="1.1" xmlns:xlink="http://www.w3.org/1999/xlink" xmlns:svgjs="http://svgjs.dev/svgjs" width="1500" height="1500" viewBox="0 0 1500 1500"><rect width="1500" height="1500" fill="#000000"></rect><g transform="matrix(0.6666666666666666,0,0,0.6666666666666666,249.39393939393932,603.7154405936974)"><svg viewBox="0 0 396 116" data-background-color="#dfdad6" preserveAspectRatio="xMidYMid meet" height="439" width="1500" xmlns="http://www.w3.org/2000/svg" xmlns:xlink="http://www.w3.org/1999/xlink"><g id="tight-bounds" transform="matrix(1,0,0,1,0.24000000000003752,-0.019331807069079332)"><svg viewBox="0 0 395.5199999999999 116.03866361413817" height="116.03866361413817" width="395.5199999999999"><g><svg viewBox="0 0 725.3865639962331 212.81575518247982" height="116.03866361413817" width="395.5199999999999"><g><rect width="13.701195603090286" height="212.81575518247982" x="280.2983641965714" y="0" fill="#ffffff" opacity="1" stroke-width="0" stroke="transparent" fill-opacity="1" class="rect-yte-0" data-fill-palette-color="primary" rx="1%" id="yte-0" data-palette-color="#e33e33"></rect></g><g transform="matrix(1,0,0,1,329.86656399623314,0.529392425827055)"><svg viewBox="0 0 395.52 211.7569703308257" height="211.7569703308257" width="395.52"><g id="textblocktransform"><svg viewBox="0 0 395.52 211.7569703308257" height="211.7569703308257" width="395.52" id="textblock"><g><svg viewBox="0 0 395.52 151.92990476190477" height="151.92990476190477" width="395.52"><g transform="matrix(1,0,0,1,0,0)"><svg width="395.52" viewBox="2.2 -40.8 143.14000000000001 54.449999999999996" height="151.92990476190477" data-palette-color="#e33e33"><g class="wordmark-text-0" data-fill-palette-color="primary" id="text-0"><path d="M26.3-31.7L26.3-7.1Q26.3-3.75 26.45-2.4L26.45-2.4 30.4-1.9Q30.55-1.1 30.4 0L30.4 0Q26.75 0.15 22.8 0.7L22.8 0.7Q22.45 0.35 22.3-0.25L22.3-0.25 22.05-3.45Q20.3-1.4 17.7-0.18 15.1 1.05 12.25 1.05L12.25 1.05Q7.9 1.05 5.05-2.58 2.2-6.2 2.2-12.25L2.2-12.25Q2.2-19.25 5.93-23.48 9.65-27.7 14.85-27.7L14.85-27.7Q18.95-27.7 21.55-25.75L21.55-25.75 21.55-32.45Q21.55-35.75 21.4-37.35L21.4-37.35 17.45-37.85Q17.25-38.6 17.45-39.75L17.45-39.75Q20.9-40 26.05-40.8L26.05-40.8Q26.5-40.3 26.55-39.8L26.55-39.8Q26.3-38.5 26.3-31.7L26.3-31.7ZM14.45-25L14.45-25Q11.2-25 9.25-21.58 7.3-18.15 7.3-12.1L7.3-12.1Q7.3-7.15 9.13-4.55 10.95-1.95 13.95-1.95L13.95-1.95Q15.75-1.95 17.9-3.08 20.05-4.2 21.55-6.2L21.55-6.2 21.55-22.2Q19.1-25 14.45-25ZM48.15-1.7L48.15-1.7Q51.45-1.7 53.37-4.9 55.3-8.1 55.3-14.55L55.3-14.55Q55.3-19.5 53.47-22.1 51.65-24.7 48.65-24.7L48.65-24.7Q44.25-24.7 41.05-20.45L41.05-20.45 41.05-4.9Q43.85-1.7 48.15-1.7ZM36.3 4.75L36.3-19.55Q36.3-22.9 36.15-24.25L36.15-24.25 32.2-24.75Q32.05-25.55 32.2-26.65L32.2-26.65Q35.7-26.9 40.8-27.7L40.8-27.7Q41.25-27.25 41.3-26.7L41.3-26.7Q41.05-24.95 41.05-23L41.05-23Q45.1-27.7 50.35-27.7L50.35-27.7Q54.75-27.7 57.67-24.05 60.6-20.4 60.6-14.4L60.6-14.4Q60.6-7.45 56.77-3.23 52.95 1 47.75 1L47.75 1Q44.1 1 41.05-1.35L41.05-1.35 41.05 10.9 46.1 11.65Q46.3 12.45 46.1 13.65L46.1 13.65Q42.95 13.5 39.15 13.5L39.15 13.5Q36.35 13.5 32.15 13.6L32.15 13.6Q31.85 12.6 32.15 11.65L32.15 11.65 36.1 11.1Q36.3 8.35 36.3 4.75L36.3 4.75ZM92.34-24.85L88.59-24.3 80.25-13.95 88.95-2.65 93.15-1.85Q93.34-1.05 93.15 0.15L93.15 0.15Q90 0 86.5 0L86.5 0Q84 0 79.8 0.1L79.8 0.1Q79.5-0.9 79.8-1.85L79.8-1.85 83.45-2.4 77.15-10.65 70.55-2.25 73.95-1.85Q74.15-1.05 73.95 0.15L73.95 0.15Q70.8 0 68.8 0L68.8 0Q67.8 0 63.59 0.1L63.59 0.1Q63.3-0.9 63.59-1.85L63.59-1.85 67.34-2.4 75.59-12.65 66.75-24.25 63.7-24.95Q63.5-25.75 63.7-26.9L63.7-26.9Q66.45-26.7 69.8-26.7L69.8-26.7Q72.7-26.7 75.95-26.85L75.95-26.85Q76.25-25.95 75.95-24.95L75.95-24.95 72.34-24.3 78.84-15.8 85.65-24.45 82.25-24.85Q82.05-25.65 82.25-26.85L82.25-26.85Q85-26.65 87.25-26.65L87.25-26.65Q89.09-26.65 92.34-26.8L92.34-26.8Q92.65-25.8 92.34-24.85L92.34-24.85ZM104.29-26.7L104.29-26.7 104.19-21.55Q105.44-23.85 107.67-25.78 109.89-27.7 111.89-27.7L111.89-27.7Q113.44-27.7 114.64-27.35L114.64-27.35Q115.04-26.7 115.04-25.65L115.04-25.65Q115.04-24 114.34-22.35L114.34-22.35Q112.54-22.85 110.89-22.85L110.89-22.85Q106.79-22.85 104.14-18.85L104.14-18.85 104.04-10.1 104.04-2.55 109.59-1.8Q109.79-1 109.59 0.2L109.59 0.2Q106.44 0.05 102.39 0.05L102.39 0.05Q99.34 0.05 95.14 0.15L95.14 0.15Q94.84-0.8 95.14-1.8L95.14-1.8 99.09-2.35Q99.29-5.1 99.29-8.7L99.29-8.7 99.29-22.4Q99.29-23.4 99.14-24.25L99.14-24.25 95.19-24.75Q94.99-25.5 95.19-26.65L95.19-26.65Q98.64-26.9 103.79-27.7L103.79-27.7Q104.24-27.2 104.29-26.7ZM135.89-2.3L125.74-14.4 136.19-24.5 132.89-24.9Q132.69-25.7 132.89-26.85L132.89-26.85Q135.64-26.65 138.04-26.65L138.04-26.65Q139.99-26.65 143.24-26.8L143.24-26.8Q143.54-25.9 143.24-24.9L143.24-24.9 139.29-24.2 130.44-15.9 141.34-2.85 145.24-1.85Q145.44-1.05 145.24 0.15L145.24 0.15Q142.09 0 138.94 0L138.94 0Q136.79 0 132.59 0.1L132.59 0.1Q132.29-0.9 132.59-1.85L132.59-1.85 135.89-2.3ZM125.19-31.7L125.19-31.7 125.19-2.55 129.24-1.8Q129.44-1 129.24 0.2L129.24 0.2Q126.09 0.05 122.84 0.05L122.84 0.05Q120.54 0.05 116.34 0.15L116.34 0.15Q116.04-0.8 116.34-1.8L116.34-1.8 120.29-2.35Q120.49-5.1 120.49-8.7L120.49-8.7 120.49-37.35 116.39-37.85Q116.19-38.6 116.39-39.75L116.39-39.75Q119.74-40 124.94-40.8L124.94-40.8Q125.39-40.3 125.44-39.8L125.44-39.8Q125.19-38.5 125.19-31.7Z" fill="#ffffff" data-fill-palette-color="primary"></path></g></svg></g></svg></g><g transform="matrix(1,0,0,1,0,187.7969089584762)"><svg viewBox="0 0 232.209792 23.960061372349525" height="23.960061372349525" width="232.209792"><g transform="matrix(1,0,0,1,0,0)"><svg width="232.209792" viewBox="1.88 -42.94 542.27 55.95" height="23.960061372349525" data-palette-color="#e33e33"><path d="M32.79-10.74L32.79-10.74Q32.79-8.47 32.21-6.74 31.64-5 30.6-3.74 29.57-2.47 28.15-1.61 26.73-0.76 25.06-0.24 23.39 0.27 21.52 0.49 19.65 0.71 17.72 0.71L17.72 0.71Q15.19 0.71 13.04 0.33 10.89-0.05 9-0.87 7.1-1.68 5.36-2.98 3.61-4.27 1.88-6.13L1.88-6.13 6.86-11.18Q7.54-9.5 8.74-8.07 9.94-6.64 11.36-5.62 12.79-4.59 14.33-4 15.87-3.42 17.24-3.42L17.24-3.42Q18.85-3.42 20.26-3.65 21.68-3.88 22.73-4.42 23.78-4.96 24.38-5.85 24.98-6.74 24.98-8.08L24.98-8.08Q24.98-9.11 24.51-9.84 24.05-10.57 23.3-11.1 22.56-11.62 21.61-11.99 20.65-12.35 19.67-12.61 18.68-12.87 17.72-13.07 16.77-13.28 16.04-13.5L16.04-13.5Q14.6-13.92 13.04-14.39 11.47-14.87 9.96-15.48 8.45-16.09 7.09-16.88 5.74-17.68 4.71-18.76 3.69-19.85 3.08-21.28 2.47-22.71 2.47-24.56L2.47-24.56Q2.47-26.78 3.02-28.5 3.56-30.22 4.57-31.49 5.57-32.76 6.93-33.63 8.3-34.5 9.94-35.02 11.57-35.55 13.42-35.78 15.26-36.01 17.19-36.01L17.19-36.01Q19.82-36.01 21.98-35.52 24.15-35.03 25.98-34.13 27.81-33.23 29.33-31.97 30.86-30.71 32.2-29.17L32.2-29.17 27.22-24.12Q26.64-25.88 25.6-27.29 24.56-28.71 23.29-29.72 22.02-30.74 20.63-31.29 19.24-31.84 17.94-31.84L17.94-31.84Q16.26-31.84 14.84-31.6 13.43-31.37 12.41-30.85 11.4-30.32 10.84-29.43 10.28-28.54 10.28-27.22L10.28-27.22Q10.28-26.17 10.69-25.44 11.11-24.71 11.8-24.19 12.5-23.68 13.38-23.35 14.26-23.02 15.2-22.78 16.14-22.53 17.05-22.35 17.97-22.17 18.73-21.95L18.73-21.95Q20.19-21.53 21.8-21.07 23.41-20.61 24.98-19.98 26.54-19.36 27.95-18.55 29.37-17.75 30.44-16.64 31.52-15.53 32.15-14.07 32.79-12.62 32.79-10.74ZM67.77-14.16L67.77-14.16Q67.77-11.96 67.19-10.03 66.6-8.11 65.56-6.47 64.52-4.83 63.06-3.53 61.59-2.22 59.85-1.32 58.1-0.42 56.11 0.07 54.12 0.56 52.02 0.56L52.02 0.56Q49.92 0.56 47.95 0.07 45.97-0.42 44.22-1.32 42.48-2.22 41.01-3.53 39.55-4.83 38.51-6.47 37.47-8.11 36.89-10.05 36.3-11.99 36.3-14.16L36.3-14.16Q36.3-16.33 36.89-18.27 37.47-20.21 38.51-21.85 39.55-23.49 41.01-24.79 42.48-26.1 44.22-27 45.97-27.91 47.95-28.39 49.92-28.88 52.02-28.88L52.02-28.88Q54.12-28.88 56.11-28.39 58.1-27.91 59.85-27 61.59-26.1 63.06-24.79 64.52-23.49 65.56-21.85 66.6-20.21 67.19-18.27 67.77-16.33 67.77-14.16ZM59.37-14.16L59.37-14.16Q59.37-15.33 59.24-16.64 59.1-17.94 58.79-19.2 58.47-20.46 57.92-21.62 57.37-22.78 56.56-23.65 55.76-24.51 54.64-25.04 53.51-25.56 52.02-25.56L52.02-25.56Q50.61-25.56 49.51-25.02 48.41-24.49 47.59-23.6 46.77-22.71 46.23-21.53 45.68-20.36 45.33-19.1 44.99-17.85 44.85-16.56 44.7-15.28 44.7-14.16L44.7-14.16Q44.7-13.04 44.85-11.76 44.99-10.47 45.33-9.2 45.68-7.93 46.23-6.77 46.77-5.62 47.59-4.72 48.41-3.83 49.51-3.3 50.61-2.76 52.02-2.76L52.02-2.76Q53.49-2.76 54.61-3.28 55.73-3.81 56.55-4.69 57.37-5.57 57.91-6.71 58.44-7.86 58.77-9.13 59.1-10.4 59.24-11.69 59.37-12.99 59.37-14.16ZM98.6-39.79L98.6-39.79 93.94-32.08Q93.87-33.01 93.6-34.22 93.33-35.42 92.71-36.5 92.08-37.57 91-38.32 89.91-39.06 88.23-39.06L88.23-39.06Q86.49-39.06 85.44-38.38 84.39-37.7 83.83-36.33 83.27-34.96 83.08-32.93 82.88-30.91 82.88-28.22L82.88-28.22 91.43-28.22 91.43-24.95 82.88-24.95 82.88 0 74.6 0 74.6-24.95 69.48-24.95 69.48-28.22 74.6-28.22Q74.6-32.1 75.43-34.89 76.26-37.67 77.95-39.47 79.63-41.26 82.18-42.1 84.74-42.94 88.15-42.94L88.15-42.94Q90.2-42.94 91.83-42.66 93.45-42.38 94.71-41.93 95.97-41.48 96.92-40.92 97.87-40.36 98.6-39.79ZM107.24-24.93L107.24 0 98.97 0 98.97-24.93 93.84-24.93 93.84-28.2 98.97-28.2 98.97-38.57 107.24-38.57 107.24-28.2 115.79-28.2 115.79-24.93 107.24-24.93ZM137.22-17.14L132.56 0 125.14 0 117.42-28.2 125.67-28.2 130.51-8.42 134.54-28.2 141.96-28.2 146.89-7.89 151.65-28.2 157.36-28.2 148.82 0 141.4 0 137.22-17.14ZM189.64-28.2L189.64 0 181.38 0 181.38-3.37Q179.92-1.37 177.86-0.4 175.79 0.56 173.33 0.56L173.33 0.56Q170.1 0.56 167.57-0.59 165.03-1.73 163.27-3.72 161.51-5.71 160.58-8.4 159.66-11.08 159.66-14.16L159.66-14.16Q159.66-17.24 160.58-19.92 161.51-22.61 163.27-24.6 165.03-26.59 167.57-27.73 170.1-28.88 173.33-28.88L173.33-28.88Q174.96-28.88 176.44-28.39 177.92-27.91 179.15-27.01 180.38-26.12 181.32-24.87 182.26-23.61 182.8-22.07L182.8-22.07 186.46-28.2 189.64-28.2ZM181.34-14.16L181.34-14.16Q181.34-15.26 181.23-16.48 181.12-17.7 180.85-18.9 180.58-20.09 180.1-21.18 179.63-22.27 178.88-23.11 178.14-23.95 177.09-24.44 176.04-24.93 174.65-24.93L174.65-24.93Q173.25-24.93 172.23-24.43 171.2-23.93 170.47-23.08 169.74-22.24 169.26-21.14 168.79-20.04 168.52-18.85 168.25-17.65 168.14-16.44 168.03-15.23 168.03-14.16L168.03-14.16Q168.03-13.09 168.14-11.87 168.25-10.64 168.52-9.45 168.79-8.25 169.26-7.15 169.74-6.05 170.47-5.21 171.2-4.37 172.23-3.87 173.25-3.37 174.65-3.37L174.65-3.37Q175.92-3.37 176.9-3.89 177.89-4.42 178.64-5.3 179.38-6.18 179.89-7.3 180.41-8.42 180.72-9.62 181.04-10.82 181.19-12 181.34-13.18 181.34-14.16ZM220.49-25.71L220.49-25.71 215.85-18.02Q215.56-18.99 215.1-20.21 214.63-21.44 213.95-22.5 213.27-23.56 212.31-24.28 211.36-25 210.12-25L210.12-25Q208.97-25 208.13-24.41 207.28-23.83 206.7-22.89 206.11-21.95 205.73-20.76 205.36-19.58 205.15-18.37 204.94-17.16 204.87-16.05 204.79-14.94 204.79-14.14L204.79-14.14 204.79 0 196.52 0 196.52-28.2 199.69-28.2 203.04-21.63Q203.72-23.22 204.6-24.55 205.48-25.88 206.63-26.84 207.77-27.81 209.23-28.34 210.68-28.88 212.51-28.88L212.51-28.88Q213.46-28.88 214.63-28.72 215.81-28.56 216.93-28.19 218.05-27.81 219-27.2 219.96-26.59 220.49-25.71ZM229.99-13.38L229.99-13.38Q231.5-13.04 233.01-12.84 234.53-12.65 236.07-12.65L236.07-12.65Q237.68-12.65 239.06-12.95 240.44-13.26 241.45-13.98 242.46-14.7 243.05-15.89 243.63-17.09 243.63-18.87L243.63-18.87Q243.63-20.31 243.24-21.51 242.85-22.71 242.08-23.56 241.32-24.41 240.19-24.89 239.07-25.37 237.58-25.37L237.58-25.37Q236.19-25.37 235.08-24.85 233.97-24.34 233.12-23.47 232.28-22.61 231.68-21.46 231.09-20.31 230.7-19.07 230.3-17.82 230.13-16.55 229.96-15.28 229.96-14.16L229.96-14.16Q229.96-13.96 229.96-13.77 229.96-13.57 229.99-13.38ZM250.32-18.95L250.32-18.95Q250.32-17.21 249.76-15.86 249.2-14.5 248.24-13.48 247.27-12.45 246-11.74 244.73-11.04 243.29-10.58 241.85-10.13 240.33-9.94 238.8-9.74 237.36-9.74L237.36-9.74Q235.53-9.74 233.75-10 231.96-10.25 230.23-10.82L230.23-10.82Q230.5-9.2 231.09-7.75 231.67-6.3 232.65-5.21 233.63-4.13 235.05-3.49 236.48-2.86 238.43-2.86L238.43-2.86Q239.73-2.86 240.9-3.25 242.07-3.64 243.05-4.35 244.03-5.05 244.77-6.03 245.51-7.01 245.98-8.2L245.98-8.2 249.54-6.88Q248.74-4.96 247.33-3.55 245.93-2.15 244.16-1.23 242.39-0.32 240.4 0.12 238.41 0.56 236.46 0.56L236.46 0.56Q233.23 0.56 230.5-0.52 227.77-1.61 225.79-3.56 223.81-5.52 222.69-8.23 221.56-10.94 221.56-14.16L221.56-14.16Q221.56-17.38 222.69-20.09 223.81-22.8 225.79-24.76 227.77-26.71 230.5-27.8 233.23-28.88 236.46-28.88L236.46-28.88Q238.02-28.88 239.66-28.66 241.29-28.44 242.83-27.97 244.37-27.49 245.73-26.73 247.1-25.98 248.11-24.87 249.13-23.75 249.73-22.29 250.32-20.83 250.32-18.95ZM304.25-17.63L304.25-17.63Q304.25-15.06 303.57-12.76 302.88-10.45 301.65-8.5 300.42-6.54 298.71-4.97 297-3.39 294.94-2.29 292.87-1.2 290.52-0.6 288.16 0 285.67 0L285.67 0 270.17 0 270.17-35.16 285.67-35.16Q288.16-35.16 290.5-34.57 292.85-33.98 294.91-32.9 296.97-31.81 298.7-30.25 300.42-28.69 301.65-26.75 302.88-24.8 303.57-22.5 304.25-20.19 304.25-17.63ZM294.41-17.63L294.41-17.63Q294.41-20.48 293.72-23.06 293.02-25.63 291.55-27.59 290.09-29.54 287.83-30.69 285.57-31.84 282.42-31.84L282.42-31.84 279.86-31.84 279.86-3.42 282.42-3.42Q285.52-3.42 287.78-4.58 290.04-5.74 291.52-7.7 293-9.67 293.7-12.23 294.41-14.79 294.41-17.63ZM316.21-13.38L316.21-13.38Q317.72-13.04 319.24-12.84 320.75-12.65 322.29-12.65L322.29-12.65Q323.9-12.65 325.28-12.95 326.66-13.26 327.67-13.98 328.69-14.7 329.27-15.89 329.86-17.09 329.86-18.87L329.86-18.87Q329.86-20.31 329.47-21.51 329.08-22.71 328.31-23.56 327.54-24.41 326.42-24.89 325.29-25.37 323.8-25.37L323.8-25.37Q322.41-25.37 321.3-24.85 320.19-24.34 319.35-23.47 318.51-22.61 317.91-21.46 317.31-20.31 316.92-19.07 316.53-17.82 316.36-16.55 316.19-15.28 316.19-14.16L316.19-14.16Q316.19-13.96 316.19-13.77 316.19-13.57 316.21-13.38ZM336.55-18.95L336.55-18.95Q336.55-17.21 335.99-15.86 335.42-14.5 334.46-13.48 333.5-12.45 332.23-11.74 330.96-11.04 329.52-10.58 328.08-10.13 326.55-9.94 325.02-9.74 323.58-9.74L323.58-9.74Q321.75-9.74 319.97-10 318.19-10.25 316.45-10.82L316.45-10.82Q316.72-9.2 317.31-7.75 317.89-6.3 318.87-5.21 319.85-4.13 321.28-3.49 322.7-2.86 324.66-2.86L324.66-2.86Q325.95-2.86 327.12-3.25 328.3-3.64 329.27-4.35 330.25-5.05 330.99-6.03 331.74-7.01 332.2-8.2L332.2-8.2 335.77-6.88Q334.96-4.96 333.56-3.55 332.15-2.15 330.38-1.23 328.61-0.32 326.62 0.12 324.63 0.56 322.68 0.56L322.68 0.56Q319.46 0.56 316.72-0.52 313.99-1.61 312.01-3.56 310.03-5.52 308.91-8.23 307.79-10.94 307.79-14.16L307.79-14.16Q307.79-17.38 308.91-20.09 310.03-22.8 312.01-24.76 313.99-26.71 316.72-27.8 319.46-28.88 322.68-28.88L322.68-28.88Q324.24-28.88 325.88-28.66 327.51-28.44 329.05-27.97 330.59-27.49 331.96-26.73 333.32-25.98 334.34-24.87 335.35-23.75 335.95-22.29 336.55-20.83 336.55-18.95ZM367.31-28.2L356.2 0 348.78 0 338.52-28.2 346.77-28.2 354.29-5.74 361.59-28.2 367.31-28.2ZM377.02-13.38L377.02-13.38Q378.53-13.04 380.05-12.84 381.56-12.65 383.1-12.65L383.1-12.65Q384.71-12.65 386.09-12.95 387.47-13.26 388.48-13.98 389.5-14.7 390.08-15.89 390.67-17.09 390.67-18.87L390.67-18.87Q390.67-20.31 390.28-21.51 389.89-22.71 389.12-23.56 388.35-24.41 387.23-24.89 386.1-25.37 384.61-25.37L384.61-25.37Q383.22-25.37 382.11-24.85 381-24.34 380.16-23.47 379.32-22.61 378.72-21.46 378.12-20.31 377.73-19.07 377.34-17.82 377.17-16.55 377-15.28 377-14.16L377-14.16Q377-13.96 377-13.77 377-13.57 377.02-13.38ZM397.36-18.95L397.36-18.95Q397.36-17.21 396.8-15.86 396.23-14.5 395.27-13.48 394.31-12.45 393.04-11.74 391.77-11.04 390.33-10.58 388.89-10.13 387.36-9.94 385.83-9.74 384.39-9.74L384.39-9.74Q382.56-9.74 380.78-10 379-10.25 377.26-10.82L377.26-10.82Q377.53-9.2 378.12-7.75 378.71-6.3 379.68-5.21 380.66-4.13 382.09-3.49 383.51-2.86 385.47-2.86L385.47-2.86Q386.76-2.86 387.93-3.25 389.11-3.64 390.08-4.35 391.06-5.05 391.8-6.03 392.55-7.01 393.01-8.2L393.01-8.2 396.58-6.88Q395.77-4.96 394.37-3.55 392.96-2.15 391.19-1.23 389.42-0.32 387.43 0.12 385.44 0.56 383.49 0.56L383.49 0.56Q380.27 0.56 377.53-0.52 374.8-1.61 372.82-3.56 370.84-5.52 369.72-8.23 368.6-10.94 368.6-14.16L368.6-14.16Q368.6-17.38 369.72-20.09 370.84-22.8 372.82-24.76 374.8-26.71 377.53-27.8 380.27-28.88 383.49-28.88L383.49-28.88Q385.05-28.88 386.69-28.66 388.32-28.44 389.86-27.97 391.4-27.49 392.77-26.73 394.14-25.98 395.15-24.87 396.16-23.75 396.76-22.29 397.36-20.83 397.36-18.95ZM410.76-32.62L410.76 0 402.51 0 402.51-41.19 405.68-41.19 410.76-32.62ZM447.43-14.16L447.43-14.16Q447.43-11.96 446.84-10.03 446.25-8.11 445.22-6.47 444.18-4.83 442.71-3.53 441.25-2.22 439.5-1.32 437.76-0.42 435.77 0.07 433.78 0.56 431.68 0.56L431.68 0.56Q429.58 0.56 427.6 0.07 425.62-0.42 423.88-1.32 422.13-2.22 420.67-3.53 419.2-4.83 418.17-6.47 417.13-8.11 416.54-10.05 415.96-11.99 415.96-14.16L415.96-14.16Q415.96-16.33 416.54-18.27 417.13-20.21 418.17-21.85 419.2-23.49 420.67-24.79 422.13-26.1 423.88-27 425.62-27.91 427.6-28.39 429.58-28.88 431.68-28.88L431.68-28.88Q433.78-28.88 435.77-28.39 437.76-27.91 439.5-27 441.25-26.1 442.71-24.79 444.18-23.49 445.22-21.85 446.25-20.21 446.84-18.27 447.43-16.33 447.43-14.16ZM439.03-14.16L439.03-14.16Q439.03-15.33 438.89-16.64 438.76-17.94 438.44-19.2 438.12-20.46 437.57-21.62 437.03-22.78 436.22-23.65 435.41-24.51 434.29-25.04 433.17-25.56 431.68-25.56L431.68-25.56Q430.26-25.56 429.16-25.02 428.07-24.49 427.25-23.6 426.43-22.71 425.88-21.53 425.33-20.36 424.99-19.1 424.65-17.85 424.5-16.56 424.35-15.28 424.35-14.16L424.35-14.16Q424.35-13.04 424.5-11.76 424.65-10.47 424.99-9.2 425.33-7.93 425.88-6.77 426.43-5.62 427.25-4.72 428.07-3.83 429.16-3.3 430.26-2.76 431.68-2.76L431.68-2.76Q433.14-2.76 434.27-3.28 435.39-3.81 436.21-4.69 437.03-5.57 437.56-6.71 438.1-7.86 438.43-9.13 438.76-10.4 438.89-11.69 439.03-12.99 439.03-14.16ZM482.6-14.16L482.6-14.16Q482.6-11.08 481.68-8.4 480.75-5.71 478.99-3.72 477.23-1.73 474.69-0.59 472.15 0.56 468.93 0.56L468.93 0.56Q466.47 0.56 464.4-0.4 462.34-1.37 460.88-3.37L460.88-3.37 460.88 13.01 452.62 13.01 452.62-28.2 455.8-28.2 459.46-22.07Q460-23.61 460.94-24.87 461.88-26.12 463.11-27.01 464.34-27.91 465.82-28.39 467.3-28.88 468.93-28.88L468.93-28.88Q472.15-28.88 474.69-27.73 477.23-26.59 478.99-24.6 480.75-22.61 481.68-19.92 482.6-17.24 482.6-14.16ZM474.23-14.16L474.23-14.16Q474.23-15.23 474.12-16.44 474.01-17.65 473.74-18.85 473.47-20.04 473-21.14 472.52-22.24 471.79-23.08 471.06-23.93 470.02-24.43 468.98-24.93 467.61-24.93L467.61-24.93Q466.2-24.93 465.16-24.44 464.12-23.95 463.38-23.11 462.63-22.27 462.16-21.18 461.68-20.09 461.41-18.9 461.14-17.7 461.03-16.48 460.92-15.26 460.92-14.16L460.92-14.16Q460.92-13.18 461.07-12 461.22-10.82 461.53-9.62 461.85-8.42 462.36-7.3 462.88-6.18 463.62-5.3 464.37-4.42 465.36-3.89 466.34-3.37 467.61-3.37L467.61-3.37Q469.01-3.37 470.03-3.87 471.06-4.37 471.79-5.21 472.52-6.05 473-7.15 473.47-8.25 473.74-9.45 474.01-10.64 474.12-11.87 474.23-13.09 474.23-14.16ZM494.69-13.38L494.69-13.38Q496.2-13.04 497.71-12.84 499.23-12.65 500.77-12.65L500.77-12.65Q502.38-12.65 503.76-12.95 505.14-13.26 506.15-13.98 507.16-14.7 507.75-15.89 508.33-17.09 508.33-18.87L508.33-18.87Q508.33-20.31 507.94-21.51 507.55-22.71 506.78-23.56 506.01-24.41 504.89-24.89 503.77-25.37 502.28-25.37L502.28-25.37Q500.89-25.37 499.78-24.85 498.67-24.34 497.82-23.47 496.98-22.61 496.38-21.46 495.79-20.31 495.39-19.07 495-17.82 494.83-16.55 494.66-15.28 494.66-14.16L494.66-14.16Q494.66-13.96 494.66-13.77 494.66-13.57 494.69-13.38ZM515.02-18.95L515.02-18.95Q515.02-17.21 514.46-15.86 513.9-14.5 512.94-13.48 511.97-12.45 510.7-11.74 509.43-11.04 507.99-10.58 506.55-10.13 505.03-9.94 503.5-9.74 502.06-9.74L502.06-9.74Q500.23-9.74 498.45-10 496.66-10.25 494.93-10.82L494.93-10.82Q495.2-9.2 495.79-7.75 496.37-6.3 497.35-5.21 498.32-4.13 499.75-3.49 501.18-2.86 503.13-2.86L503.13-2.86Q504.43-2.86 505.6-3.25 506.77-3.64 507.75-4.35 508.72-5.05 509.47-6.03 510.21-7.01 510.68-8.2L510.68-8.2 514.24-6.88Q513.44-4.96 512.03-3.55 510.63-2.15 508.86-1.23 507.09-0.32 505.1 0.12 503.11 0.56 501.16 0.56L501.16 0.56Q497.93 0.56 495.2-0.52 492.46-1.61 490.49-3.56 488.51-5.52 487.39-8.23 486.26-10.94 486.26-14.16L486.26-14.16Q486.26-17.38 487.39-20.09 488.51-22.8 490.49-24.76 492.46-26.71 495.2-27.8 497.93-28.88 501.16-28.88L501.16-28.88Q502.72-28.88 504.35-28.66 505.99-28.44 507.53-27.97 509.07-27.49 510.43-26.73 511.8-25.98 512.81-24.87 513.83-23.75 514.43-22.29 515.02-20.83 515.02-18.95ZM544.15-25.71L544.15-25.71 539.51-18.02Q539.22-18.99 538.75-20.21 538.29-21.44 537.6-22.5 536.92-23.56 535.97-24.28 535.02-25 533.77-25L533.77-25Q532.62-25 531.78-24.41 530.94-23.83 530.35-22.89 529.77-21.95 529.39-20.76 529.01-19.58 528.8-18.37 528.6-17.16 528.52-16.05 528.45-14.94 528.45-14.14L528.45-14.14 528.45 0 520.17 0 520.17-28.2 523.35-28.2 526.69-21.63Q527.37-23.22 528.25-24.55 529.13-25.88 530.28-26.84 531.43-27.81 532.88-28.34 534.33-28.88 536.16-28.88L536.16-28.88Q537.12-28.88 538.29-28.72 539.46-28.56 540.58-28.19 541.71-27.81 542.66-27.2 543.61-26.59 544.15-25.71Z" opacity="1" transform="matrix(1,0,0,1,0,0)" fill="#ffffff" class="slogan-text-1" data-fill-palette-color="secondary" id="text-1"></path></svg></g></svg></g></svg></g></svg></g><g transform="matrix(1,0,0,1,0,15.637203198232768)"><svg viewBox="0 0 244.43135999999998 181.54134878601428" height="181.54134878601428" width="244.43135999999998"><g><svg xmlns="http://www.w3.org/2000/svg" xmlns:xlink="http://www.w3.org/1999/xlink" version="1.1" x="0" y="0" viewBox="7.5 18.435 85.001 63.131" enable-background="new 0 0 100 100" xml:space="preserve" height="181.54134878601428" width="244.43135999999998" class="icon-icon-0" data-fill-palette-color="accent" id="icon-0"><g fill="#ea6b62" data-fill-palette-color="accent"><path d="M89.405 18.435H10.595A3.1 3.1 0 0 0 7.5 21.53V78.471A3.1 3.1 0 0 0 10.595 81.566H89.406A3.1 3.1 0 0 0 92.501 78.471V21.529A3.1 3.1 0 0 0 89.405 18.435M10.595 19.673H89.406A1.86 1.86 0 0 1 91.263 21.529V30.604C91.195 30.594 91.127 30.583 91.056 30.583H8.951C8.878 30.583 8.808 30.594 8.738 30.604V21.528C8.738 20.506 9.571 19.673 10.595 19.673M91.263 77.14A0.207 0.207 0 0 1 91.056 77.346H8.951A0.206 0.206 0 0 1 8.745 77.14V32.027C8.745 31.914 8.838 31.821 8.951 31.821H91.055C91.169 31.821 91.262 31.914 91.262 32.027V77.14zM89.405 80.327H10.595A1.855 1.855 0 0 1 8.747 78.563C8.814 78.573 8.882 78.584 8.951 78.584H91.055C91.123 78.584 91.188 78.573 91.252 78.564A1.854 1.854 0 0 1 89.405 80.327" fill="#ffffff" data-fill-palette-color="accent"></path><path d="M28.178 27.787C29.628 27.787 30.808 26.607 30.808 25.157 30.808 23.706 29.628 22.526 28.178 22.526S25.547 23.706 25.547 25.157 26.728 27.787 28.178 27.787M28.178 23.765A1.394 1.394 0 0 1 28.178 26.551 1.394 1.394 0 0 1 28.178 23.765" fill="#ffffff" data-fill-palette-color="accent"></path><path d="M21.458 27.787A2.633 2.633 0 0 0 24.089 25.157 2.634 2.634 0 0 0 21.458 22.526C20.008 22.526 18.828 23.706 18.828 25.157S20.008 27.787 21.458 27.787M21.458 23.765A1.393 1.393 0 1 1 21.458 26.552 1.393 1.393 0 0 1 21.457 23.765" fill="#ffffff" data-fill-palette-color="accent"></path><path d="M14.738 27.787A2.633 2.633 0 0 0 17.369 25.157 2.634 2.634 0 0 0 14.738 22.526C13.288 22.526 12.108 23.706 12.108 25.157S13.288 27.787 14.738 27.787M14.738 23.765A1.393 1.393 0 1 1 14.738 26.552 1.393 1.393 0 0 1 14.737 23.765" fill="#ffffff" data-fill-palette-color="accent"></path></g><path d="M26.598 65.915C25.974 65.915 25.203 65.486 24.309 64.639 22.704 63.12 22.149 62.268 23.109 61.234L31.899 52.423 23.125 43.641C22.449 42.965 22.555 42.446 22.724 42.071 22.966 41.527 23.538 40.954 24.203 40.29 25.032 39.461 25.745 38.748 26.444 38.748 26.786 38.748 27.123 38.92 27.477 39.274L39.246 51.029C39.557 51.283 39.767 51.688 39.81 52.163 39.858 52.7 39.676 53.315 39.358 53.696L27.53 65.514C27.243 65.787 26.941 65.915 26.598 65.915M23.846 42.57C23.837 42.57 23.873 42.638 24 42.764L33.211 51.985A0.62 0.62 0 0 1 33.211 52.86L24 62.093A0.8 0.8 0 0 0 23.867 62.259C23.879 62.306 23.992 62.636 25.159 63.739 26.138 64.666 26.579 64.677 26.597 64.677V65.296L26.607 64.676 26.606 64.677C26.603 64.677 26.626 64.665 26.667 64.627L38.444 52.86C38.505 52.783 38.595 52.503 38.575 52.271A0.44 0.44 0 0 0 38.413 51.943L26.601 40.148C26.457 40.005 26.386 39.977 26.386 39.977 26.204 40.037 25.5 40.741 25.079 41.161 24.548 41.693 24.002 42.239 23.852 42.574 23.85 42.571 23.848 42.57 23.846 42.57" fill="#ffffff" data-fill-palette-color="accent"></path><path d="M55.834 71.436H40.498C38.904 71.436 38.578 70.202 38.578 68.348S38.904 65.26 40.498 65.26H55.834C57.337 65.26 57.621 66.345 57.621 68.348 57.621 70.396 57.346 71.436 55.834 71.436M40.498 66.497C40.132 66.497 39.815 66.497 39.815 68.348S40.131 70.199 40.498 70.199H55.834C56.188 70.199 56.384 70.199 56.384 68.348S56.165 66.497 55.834 66.497z" fill="#ffffff" data-fill-palette-color="accent"></path></svg></g></svg></g></svg></g><defs></defs></svg><rect width="395.5199999999999" height="116.03866361413817" fill="none" stroke="none" visibility="hidden"></rect></g></svg></g></svg>